<?xml version="1.0" encoding="UTF-8" standalone="no"?>
<!-- Generator: Adobe Illustrator 27.3.1, SVG Export Plug-In . SVG Version: 6.00 Build 0)  -->

<svg
   version="1.1"
   id="Layer_1"
   x="0px"
   y="0px"
   viewBox="0 0 612 264.3"
   style="enable-background:new 0 0 612 264.3;"
   xmlspace="preserve"
   xmlns="http://www.w3.org/2000/svg"
   xmlnssvg="http://www.w3.org/2000/svg"><defs
   id="defs67" />
<style
   type="text/css"
   id="style2">
	.st0{fill:#FFFFFF;}
</style>
<g
   id="g38"
   style="fill:#aa0000"
   transform="matrix(1.3867879,0,0,1.3867879,-122.07481,-50.90817)">
	<rect
   x="96.800003"
   y="91.5"
   class="st0"
   width="8.6999998"
   height="98.800003"
   id="rect4"
   style="fill:#aa0000" />
	<rect
   x="227.39999"
   y="91.5"
   class="st0"
   width="8.6999998"
   height="98.800003"
   id="rect6"
   style="fill:#aa0000" />
	<rect
   x="105.5"
   y="82.800003"
   class="st0"
   width="8.6999998"
   height="8.6999998"
   id="rect8"
   style="fill:#aa0000" />
	<rect
   x="114.3"
   y="74.099998"
   class="st0"
   width="17.4"
   height="8.6999998"
   id="rect10"
   style="fill:#aa0000" />
	<rect
   x="131.7"
   y="65.400002"
   class="st0"
   width="69.699997"
   height="8.6999998"
   id="rect12"
   style="fill:#aa0000" />
	<rect
   x="218.7"
   y="82.800003"
   class="st0"
   width="8.6999998"
   height="8.6999998"
   id="rect14"
   style="fill:#aa0000" />
	<rect
   x="201.3"
   y="74.099998"
   class="st0"
   width="17.4"
   height="8.6999998"
   id="rect16"
   style="fill:#aa0000" />
	<rect
   x="105.5"
   y="190.2"
   class="st0"
   width="26.1"
   height="8.6999998"
   id="rect18"
   style="fill:#aa0000" />
	<rect
   x="131.7"
   y="181.5"
   class="st0"
   width="8.6999998"
   height="8.6999998"
   id="rect20"
   style="fill:#aa0000" />
	<rect
   x="192.60001"
   y="181.5"
   class="st0"
   width="8.6999998"
   height="8.6999998"
   id="rect22"
   style="fill:#aa0000" />
	<rect
   x="201.3"
   y="190.2"
   class="st0"
   width="26.1"
   height="8.6999998"
   id="rect24"
   style="fill:#aa0000" />
	<rect
   x="140.39999"
   y="190.2"
   class="st0"
   width="17.4"
   height="8.6999998"
   id="rect26"
   style="fill:#aa0000" />
	<rect
   x="157.8"
   y="181.5"
   class="st0"
   width="17.4"
   height="8.6999998"
   id="rect28"
   style="fill:#aa0000" />
	<rect
   x="175.2"
   y="190.2"
   class="st0"
   width="17.4"
   height="8.6999998"
   id="rect30"
   style="fill:#aa0000" />
	<rect
   x="131.7"
   y="120.6"
   class="st0"
   width="8.6999998"
   height="8.6999998"
   id="rect32"
   style="fill:#aa0000" />
	<rect
   x="183.89999"
   y="120.6"
   class="st0"
   width="8.6999998"
   height="8.6999998"
   id="rect34"
   style="fill:#aa0000" />
	<rect
   x="149.10001"
   y="146.7"
   class="st0"
   width="26.1"
   height="8.6999998"
   id="rect36"
   style="fill:#aa0000" />
</g>
<g
   id="g62"
   style="fill:#ffffff"
   transform="matrix(1.3867879,0,0,1.3867879,-122.07481,-50.90817)">
	<path
   class="st0"
   d="m 299.3,134.6 h -7 -7 -7 -7 v -7 -7 -7 -7 -7 -7 h 7 7 7 7 7 v 7 7 h -7 -7 v -7 h -7 v 7 7 7 7 h 7 v -7 h 7 7 v 7 7 z"
   id="path40"
   style="fill:#ffffff" />
	<path
   class="st0"
   d="m 341.1,134.6 h -7 v -7 -7 h -7 v 7 7 h -7 -7 v -7 -7 -7 -7 -7 -7 h 7 7 7 7 7 v 7 7 7 7 7 7 z m -7,-20.9 v -7 -7 h -7 v 7 7 z"
   id="path42"
   style="fill:#ffffff" />
	<path
   class="st0"
   d="m 382.9,134.6 h -7 -7 -7 -7 v -7 -7 h 7 7 v 7 h 7 v -7 -7 h -7 -7 -7 v -7 -7 -7 h 7 7 7 7 7 v 7 h -7 -7 -7 v 7 h 7 7 7 v 7 7 7 7 z"
   id="path44"
   style="fill:#ffffff" />
	<path
   class="st0"
   d="m 403.8,134.6 h -7 v -7 -7 -7 -7 -7 -7 h 7 7 7 7 7 v 7 7 7 7 h -7 -7 -7 v 7 7 z m 13.9,-20.9 v -7 -7 h -7 v 7 7 z"
   id="path46"
   style="fill:#ffffff" />
	<path
   class="st0"
   d="m 466.5,134.6 h -7 -7 -7 -7 v -7 -7 -7 -7 -7 -7 h 7 7 7 7 7 v 7 h -7 -7 -7 v 7 h 7 7 v 7 h -7 -7 v 7 7 h 7 v -7 h 7 7 v 7 7 z"
   id="path48"
   style="fill:#ffffff" />
	<path
   class="st0"
   d="m 508.3,134.6 h -7 v -7 -7 h -7 v 7 7 h -7 -7 v -7 -7 -7 -7 -7 -7 h 7 7 7 7 7 v 7 7 7 h -7 v 7 h 7 v 7 7 z m -7,-20.9 v -7 -7 h -7 v 7 7 z"
   id="path50"
   style="fill:#ffffff" />
	<path
   class="st0"
   d="m 279.5,189.4 h -8.1 v -8.1 -8.1 -8.1 -8.1 -8.1 -8.1 h 8.1 8.1 8.1 8.1 8.1 v 8.1 8.1 8.1 8.1 h -8.1 -8.1 -8.1 v 8.1 8.1 z m 16.3,-24.3 v -8.1 -8.1 h -8.1 v 8.1 8.1 z"
   id="path52"
   style="fill:#ffffff" />
	<path
   class="st0"
   d="m 352.7,189.4 h -8.1 -8.1 -8.1 -8.1 v -8.1 -8.1 -8.1 -8.1 -8.1 -8.1 h 8.1 8.1 v 8.1 8.1 8.1 8.1 8.1 h 8.1 v -8.1 -8.1 -8.1 -8.1 -8.1 h 8.1 8.1 v 8.1 8.1 8.1 8.1 8.1 8.1 z"
   id="path54"
   style="fill:#ffffff" />
	<path
   class="st0"
   d="m 409.6,189.4 h -8.1 v -8.1 -8.1 h -8.1 v -8.1 h -8.1 v 8.1 8.1 8.1 h -8.1 -8.1 v -8.1 -8.1 -8.1 -8.1 -8.1 -8.1 h 8.1 8.1 v 8.1 h 8.1 v 8.1 h 8.1 v -8.1 -8.1 h 8.1 8.1 v 8.1 8.1 8.1 8.1 8.1 8.1 z"
   id="path56"
   style="fill:#ffffff" />
	<path
   class="st0"
   d="m 458.4,189.4 h -8.1 v -8.1 -8.1 -8.1 h -8.1 v 8.1 8.1 8.1 h -8.2 -8.1 v -8.1 -8.1 -8.1 -8.1 -8.1 -8.1 h 8.1 8.1 v 8.1 8.1 h 8.1 v -8.1 -8.1 h 8.1 8.1 v 8.1 8.1 h -8.1 v 8.1 h 8.1 v 8.1 8.1 8.1 z"
   id="path58"
   style="fill:#ffffff" />
	<path
   class="st0"
   d="m 507.1,189.4 h -8.1 -8.1 -8.1 -8.1 v -8.1 -8.1 h 8.1 8.1 v 8.1 h 8.1 v -8.1 -8.1 h -8.1 -8.1 -8.1 v -8.1 -8.1 -8.1 h 8.1 8.1 8.1 8.1 8.1 v 8.1 h -8.1 -8.1 -8.1 v 8.1 h 8.1 8.1 8.1 v 8.1 8.1 8.1 8.1 z"
   id="path60"
   style="fill:#ffffff" />
</g>
</svg>
