<svg xmlns:xlink="http://www.w3.org/1999/xlink" width="32" height="32" viewBox="0 0 32 32" fill="none" xmlns="http://www.w3.org/2000/svg">
    <path fill-rule="evenodd" clip-rule="evenodd" d="M32 7C32 5.34315 30.6569 4 29 4H3C1.34315 4 0 5.34315 0 7V25C0 26.6569 1.34315 28 3 28H29C30.6569 28 32 26.6569 32 25V7ZM19.0829 7.3934C19.6134 6.86887 20.4736 6.86887 21.0041 7.3934L25.3269 11.6673C25.5922 11.9296 25.5922 12.3548 25.3269 12.617L23.4057 14.5165C23.1404 14.7788 22.7103 14.7788 22.445 14.5165L20.764 12.8545C20.366 12.4611 19.7209 12.4611 19.323 12.8545L16.9215 15.2289C16.5236 15.6223 16.5236 16.2601 16.9215 16.6535L19.323 19.0279C19.7209 19.4213 20.366 19.4213 20.764 19.0279L22.445 17.3658C22.7103 17.1035 23.1404 17.1035 23.4057 17.3658L25.3269 19.2653C25.5922 19.5276 25.5922 19.9528 25.3269 20.2151L21.0041 24.4889C20.4736 25.0135 19.6134 25.0135 19.0829 24.4889L11.3979 16.8909C10.8674 16.3664 10.8674 15.516 11.3979 14.9914L19.0829 7.3934Z" fill="#C2000E"></path>
    </svg>