<svg width="20" height="20" viewBox="0 0 20 20" fill="none" xmlns="http://www.w3.org/2000/svg">
<path d="M6.66675 15.4165C6.66675 14.7261 7.2264 14.1665 7.91675 14.1665C8.60712 14.1665 9.16675 14.7261 9.16675 15.4165C9.16675 16.1069 8.60712 16.6665 7.91675 16.6665C7.2264 16.6665 6.66675 16.1069 6.66675 15.4165Z"/>
<path d="M13.3333 15.4165C13.3333 14.7261 13.8929 14.1665 14.5833 14.1665C15.2736 14.1665 15.8333 14.7261 15.8333 15.4165C15.8333 16.1069 15.2736 16.6665 14.5833 16.6665C13.8929 16.6665 13.3333 16.1069 13.3333 15.4165Z"/>
<path d="M2.5 4.1665H3.79732C4.03379 4.1665 4.2451 4.31198 4.3265 4.53081L6.74873 11.0426C7.07433 11.9179 7.91957 12.4998 8.86544 12.4998H13.8385C14.8088 12.4998 15.6704 11.8877 15.9773 10.9804L17.4706 6.5644C17.5924 6.20467 17.3207 5.83317 16.936 5.83317H8.41804" stroke-width="1.5" stroke-linecap="round" stroke-linejoin="round"/>
</svg>
