<svg width="16" height="16" viewBox="0 0 16 16" fill="none" xmlns="http://www.w3.org/2000/svg">
<path d="M7 12H6.28571C5.14907 12 4.05898 11.5786 3.25526 10.8284C2.45153 10.0783 2 9.06087 2 8C2 6.93913 2.45153 5.92172 3.25526 5.17157C4.05898 4.42143 5.14907 4 6.28571 4H7" stroke="black" stroke-linecap="round" stroke-linejoin="round"/>
<path d="M8 10C8 11.1046 8.89543 12 10 12H12C13.1046 12 14 11.1046 14 10C14 8.89543 13.1046 8 12 8H10C8.89543 8 8 7.10457 8 6C8 4.89543 8.89543 4 10 4H12C13.1046 4 14 4.89543 14 6M11 3V13" stroke="black" stroke-linecap="round" stroke-linejoin="round"/>
</svg>
