<svg width="20" height="20" viewBox="0 0 20 20" fill="none" xmlns="http://www.w3.org/2000/svg">
<path d="M11.667 4.66634C11.667 4.19963 11.667 3.96627 11.7578 3.78802C11.8377 3.63122 11.9652 3.50373 12.122 3.42383C12.3002 3.33301 12.5336 3.33301 13.0003 3.33301H15.3337C15.8004 3.33301 16.0337 3.33301 16.212 3.42383C16.3688 3.50373 16.4962 3.63122 16.5762 3.78802C16.667 3.96627 16.667 4.19963 16.667 4.66634V6.99967C16.667 7.46638 16.667 7.69974 16.5762 7.878C16.4962 8.0348 16.3688 8.16228 16.212 8.24218C16.0337 8.33301 15.8004 8.33301 15.3337 8.33301H13.0003C12.5336 8.33301 12.3002 8.33301 12.122 8.24218C11.9652 8.16228 11.8377 8.0348 11.7578 7.878C11.667 7.69974 11.667 7.46638 11.667 6.99967V4.66634Z" stroke="black" stroke-width="1.5" stroke-linecap="round" stroke-linejoin="round"/>
<path d="M3.33301 4.66634C3.33301 4.19963 3.33301 3.96627 3.42383 3.78802C3.50373 3.63122 3.63122 3.50373 3.78802 3.42383C3.96627 3.33301 4.19963 3.33301 4.66634 3.33301H6.99967C7.46638 3.33301 7.69974 3.33301 7.878 3.42383C8.0348 3.50373 8.16228 3.63122 8.24218 3.78802C8.33301 3.96627 8.33301 4.19963 8.33301 4.66634V6.99967C8.33301 7.46638 8.33301 7.69974 8.24218 7.878C8.16228 8.0348 8.0348 8.16228 7.878 8.24218C7.69974 8.33301 7.46638 8.33301 6.99967 8.33301H4.66634C4.19963 8.33301 3.96627 8.33301 3.78802 8.24218C3.63122 8.16228 3.50373 8.0348 3.42383 7.878C3.33301 7.69974 3.33301 7.46638 3.33301 6.99967V4.66634Z" stroke="black" stroke-width="1.5" stroke-linecap="round" stroke-linejoin="round"/>
<path d="M3.33301 13.0003C3.33301 12.5336 3.33301 12.3002 3.42383 12.122C3.50373 11.9652 3.63122 11.8377 3.78802 11.7578C3.96627 11.667 4.19963 11.667 4.66634 11.667H6.99967C7.46638 11.667 7.69974 11.667 7.878 11.7578C8.0348 11.8377 8.16228 11.9652 8.24218 12.122C8.33301 12.3002 8.33301 12.5336 8.33301 13.0003V15.3337C8.33301 15.8004 8.33301 16.0337 8.24218 16.212C8.16228 16.3688 8.0348 16.4962 7.878 16.5762C7.69974 16.667 7.46638 16.667 6.99967 16.667H4.66634C4.19963 16.667 3.96627 16.667 3.78802 16.5762C3.63122 16.4962 3.50373 16.3688 3.42383 16.212C3.33301 16.0337 3.33301 15.8004 3.33301 15.3337V13.0003Z" stroke="black" stroke-width="1.5" stroke-linecap="round" stroke-linejoin="round"/>
<path d="M11.667 13.0003C11.667 12.5336 11.667 12.3002 11.7578 12.122C11.8377 11.9652 11.9652 11.8377 12.122 11.7578C12.3002 11.667 12.5336 11.667 13.0003 11.667H15.3337C15.8004 11.667 16.0337 11.667 16.212 11.7578C16.3688 11.8377 16.4962 11.9652 16.5762 12.122C16.667 12.3002 16.667 12.5336 16.667 13.0003V15.3337C16.667 15.8004 16.667 16.0337 16.5762 16.212C16.4962 16.3688 16.3688 16.4962 16.212 16.5762C16.0337 16.667 15.8004 16.667 15.3337 16.667H13.0003C12.5336 16.667 12.3002 16.667 12.122 16.5762C11.9652 16.4962 11.8377 16.3688 11.7578 16.212C11.667 16.0337 11.667 15.8004 11.667 15.3337V13.0003Z" stroke="black" stroke-width="1.5" stroke-linecap="round" stroke-linejoin="round"/>
</svg>
