<svg width="25" height="24" viewBox="0 0 25 24" fill="none" xmlns="http://www.w3.org/2000/svg">
<g id="Box">
<path id="Vector" d="M3.02881 7.18517L12.0288 11.1852L12.638 9.81445L3.63801 5.81445L3.02881 7.18517ZM13.0834 21.4998V10.4998H11.5834V21.4998H13.0834ZM12.638 11.1852L21.638 7.18517L21.0288 5.81445L12.0288 9.81445L12.638 11.1852Z" fill="currentColor"/>
<path id="Vector_2" d="M3.3335 17.1102V6.88997C3.3335 6.65286 3.47314 6.43799 3.68982 6.34169L12.0898 2.60835C12.245 2.5394 12.422 2.5394 12.5772 2.60835L20.9772 6.34169C21.1939 6.43799 21.3335 6.65286 21.3335 6.88997V17.1102C21.3335 17.3473 21.1939 17.5622 20.9772 17.6585L12.5772 21.3918C12.422 21.4607 12.245 21.4607 12.0898 21.3918L3.68982 17.6585C3.47314 17.5622 3.3335 17.3473 3.3335 17.1102Z" stroke="currentColor" stroke-width="2" stroke-linecap="round" stroke-linejoin="round"/>
<path id="Vector_3" d="M7.8335 4.5L16.4772 8.34164C16.6939 8.43794 16.8335 8.65281 16.8335 8.88992V12.5" stroke="currentColor" stroke-width="1.5" stroke-linecap="round" stroke-linejoin="round"/>
</g>
</svg>
