<svg width="16" height="18" viewBox="0 0 16 18" fill="none" xmlns="http://www.w3.org/2000/svg">
    <path
        fillRule="evenodd"
        clipRule="evenodd"
        d="M10.2098 4.11429H3.25893C2.69086 4.11429 2.23036 4.57479 2.23036 5.14286V15.4286C2.23036 15.9966 2.69086 16.4571 3.25893 16.4571H10.2098C10.7779 16.4571 11.2384 15.9966 11.2384 15.4286V5.14286C11.2384 4.57479 10.7779 4.11429 10.2098 4.11429ZM3.25893 2.57143C1.83877 2.57143 0.6875 3.7227 0.6875 5.14286V15.4286C0.6875 16.8487 1.83877 18 3.25893 18H10.2098C11.63 18 12.7812 16.8487 12.7812 15.4286V5.14286C12.7812 3.7227 11.63 2.57143 10.2098 2.57143H3.25893Z"
        fill="#999999"
    />
    <path
        d="M5.46875 1.02858C5.46875 1.31261 5.699 1.54286 5.98304 1.54286H11.7205C12.8567 1.54286 13.7777 2.46388 13.7777 3.60001V13.3714C13.7777 13.6555 14.0079 13.8857 14.292 13.8857H14.8063C15.0903 13.8857 15.3205 13.6555 15.3205 13.3714V3.08571C15.3205 1.38152 13.939 -1.62525e-06 12.2348 0L5.98304 6.37599e-06C5.699 6.64687e-06 5.46875 0.23026 5.46875 0.514292V1.02858Z"
        fill="#999999"
    />
</svg>
