<svg width="20" height="20" viewBox="0 0 20 20" fill="none" xmlns="http://www.w3.org/2000/svg">
<g id="Delivery Truck">
<path id="Vector" d="M6.66667 15.8333C7.58714 15.8333 8.33333 15.0872 8.33333 14.1667C8.33333 13.2462 7.58714 12.5 6.66667 12.5C5.74619 12.5 5 13.2462 5 14.1667C5 15.0872 5.74619 15.8333 6.66667 15.8333Z" stroke="currentColor" stroke-width="1.5" stroke-miterlimit="1.5" stroke-linecap="round" stroke-linejoin="round"/>
<path id="Vector_2" d="M14.9997 15.8333C15.9202 15.8333 16.6663 15.0872 16.6663 14.1667C16.6663 13.2462 15.9202 12.5 14.9997 12.5C14.0792 12.5 13.333 13.2462 13.333 14.1667C13.333 15.0872 14.0792 15.8333 14.9997 15.8333Z" stroke="currentColor" stroke-width="1.5" stroke-miterlimit="1.5" stroke-linecap="round" stroke-linejoin="round"/>
<path id="Vector_3" d="M8.37467 14.1667H12.4997V5.5C12.4997 5.22386 12.2758 5 11.9997 5H0.833008" stroke="currentColor" stroke-width="1.5" stroke-linecap="round"/>
<path id="Vector_4" d="M4.70833 14.1667H3C2.72386 14.1667 2.5 13.9429 2.5 13.6667V9.58337" stroke="currentColor" stroke-width="1.5" stroke-linecap="round"/>
<path id="Vector_5" d="M1.66699 7.5H5.00033" stroke="currentColor" stroke-width="1.5" stroke-linecap="round" stroke-linejoin="round"/>
<path id="Vector_6" d="M12.5 7.5H17.1751C17.3727 7.5 17.5517 7.61637 17.632 7.79693L19.1236 11.153C19.152 11.217 19.1667 11.2862 19.1667 11.3561V13.6667C19.1667 13.9428 18.9428 14.1667 18.6667 14.1667H17.0833" stroke="currentColor" stroke-width="1.5" stroke-linecap="round"/>
<path id="Vector_7" d="M12.5 14.1666H13.3333" stroke="currentColor" stroke-width="1.5" stroke-linecap="round"/>
</g>
</svg>
