<svg width="24" height="24" viewBox="0 0 24 24" fill="none" xmlns="http://www.w3.org/2000/svg">
    <path
        d="M12 22.7501C11.37 22.7501 10.78 22.5101 10.34 22.0601L8.82001 20.5401C8.70001 20.4201 8.38 20.2901 8.22 20.2901H6.06C4.76 20.2901 3.70999 19.24 3.70999 17.94V15.7801C3.70999 15.6201 3.57999 15.3001 3.45999 15.1801L1.94 13.6601C1.5 13.2201 1.25 12.6301 1.25 12.0001C1.25 11.3701 1.49 10.78 1.94 10.34L3.45999 8.82003C3.57999 8.70003 3.70999 8.38006 3.70999 8.22006V6.06014C3.70999 4.76014 4.76 3.71005 6.06 3.71005H8.22C8.38 3.71005 8.70001 3.58005 8.82001 3.46005L10.34 1.94003C11.22 1.06003 12.78 1.06003 13.66 1.94003L15.18 3.46005C15.3 3.58005 15.62 3.71005 15.78 3.71005H17.94C19.24 3.71005 20.29 4.76014 20.29 6.06014V8.22006C20.29 8.38006 20.42 8.70003 20.54 8.82003L22.06 10.34C22.5 10.78 22.75 11.3701 22.75 12.0001C22.75 12.6301 22.51 13.2201 22.06 13.6601L20.54 15.1801C20.42 15.3001 20.29 15.6201 20.29 15.7801V17.94C20.29 19.24 19.24 20.2901 17.94 20.2901H15.78C15.62 20.2901 15.3 20.4201 15.18 20.5401L13.66 22.0601C13.22 22.5101 12.63 22.7501 12 22.7501ZM4.51999 14.1201C4.91999 14.5201 5.20999 15.2201 5.20999 15.7801V17.94C5.20999 18.41 5.59 18.7901 6.06 18.7901H8.22C8.78 18.7901 9.48001 19.08 9.88 19.48L11.4 21.0001C11.72 21.3201 12.28 21.3201 12.6 21.0001L14.12 19.48C14.52 19.08 15.22 18.7901 15.78 18.7901H17.94C18.41 18.7901 18.79 18.41 18.79 17.94V15.7801C18.79 15.2201 19.08 14.5201 19.48 14.1201L21 12.6C21.16 12.44 21.25 12.2301 21.25 12.0001C21.25 11.7701 21.16 11.5601 21 11.4001L19.48 9.88009C19.08 9.48009 18.79 8.78006 18.79 8.22006V6.06014C18.79 5.59014 18.41 5.21005 17.94 5.21005H15.78C15.22 5.21005 14.52 4.92011 14.12 4.52011L12.6 3.00009C12.28 2.68009 11.72 2.68009 11.4 3.00009L9.88 4.52011C9.48001 4.92011 8.78 5.21005 8.22 5.21005H6.06C5.59 5.21005 5.20999 5.59014 5.20999 6.06014V8.22006C5.20999 8.78006 4.91999 9.48009 4.51999 9.88009L3 11.4001C2.84 11.5601 2.75 11.7701 2.75 12.0001C2.75 12.2301 2.84 12.44 3 12.6L4.51999 14.1201Z"
        fill="black" />
    <path
        d="M15.0002 16C14.4402 16 13.9902 15.55 13.9902 15C13.9902 14.45 14.4402 14 14.9902 14C15.5402 14 15.9902 14.45 15.9902 15C15.9902 15.55 15.5502 16 15.0002 16Z"
        fill="black" />
    <path d="M9.01001 10C8.45001 10 8 9.55 8 9C8 8.45 8.45 8 9 8C9.55 8 10 8.45 10 9C10 9.55 9.56001 10 9.01001 10Z"
        fill="black" />
    <path
        d="M8.99994 15.75C8.80994 15.75 8.61994 15.68 8.46994 15.53C8.17994 15.24 8.17994 14.7599 8.46994 14.4699L14.4699 8.46994C14.7599 8.17994 15.2399 8.17994 15.5299 8.46994C15.8199 8.75994 15.8199 9.24 15.5299 9.53L9.52994 15.53C9.37994 15.68 9.18994 15.75 8.99994 15.75Z"
        fill="black" />
</svg>