<svg xmlns:xlink="http://www.w3.org/1999/xlink" width="14" height="14" viewBox="0 0 14 14" fill="none"
    xmlns="http://www.w3.org/2000/svg">
    <path fill-rule="evenodd" clip-rule="evenodd"
        d="M6.99999 0C3.12162 0 0 3.12162 0 7C0 10.8784 3.12162 14 6.99999 14H14V7.0946C14 3.21622 10.8784 0 6.99999 0ZM3.73162 10.571C3.56425 10.4036 3.56978 10.1267 3.74397 9.95254L9.95255 3.74397C10.1267 3.56977 10.4036 3.56424 10.571 3.73161C10.7384 3.89898 10.7328 4.17587 10.5586 4.35006L4.35007 10.5586C4.17587 10.7328 3.89898 10.7384 3.73162 10.571ZM4.85714 7.14286C5.80392 7.14286 6.57143 6.37535 6.57143 5.42857C6.57143 4.4818 5.80392 3.71429 4.85714 3.71429C3.91037 3.71429 3.14286 4.4818 3.14286 5.42857C3.14286 6.37535 3.91037 7.14286 4.85714 7.14286ZM9.14286 10.8571C10.0896 10.8571 10.8571 10.0896 10.8571 9.14286C10.8571 8.19608 10.0896 7.42857 9.14286 7.42857C8.19608 7.42857 7.42857 8.19608 7.42857 9.14286C7.42857 10.0896 8.19608 10.8571 9.14286 10.8571Z"
        fill="#AAAAA1"></path>
    <path
        d="M10 9.14286C10 9.61624 9.61624 10 9.14286 10C8.66947 10 8.28571 9.61624 8.28571 9.14286C8.28571 8.66947 8.66947 8.28571 9.14286 8.28571C9.61624 8.28571 10 8.66947 10 9.14286Z"
        fill="#AAAAA1"></path>
    <path
        d="M5.71429 5.42857C5.71429 5.90196 5.33053 6.28571 4.85714 6.28571C4.38376 6.28571 4 5.90196 4 5.42857C4 4.95518 4.38376 4.57143 4.85714 4.57143C5.33053 4.57143 5.71429 4.95518 5.71429 5.42857Z"
        fill="#AAAAA1"></path>
</svg>