<svg xmlns:xlink="http://www.w3.org/1999/xlink" width="18" height="18" viewBox="0 0 18 18" fill="none"
    xmlns="http://www.w3.org/2000/svg">
    <path fill-rule="evenodd" clip-rule="evenodd"
        d="M8.99999 0C4.01351 0 0 4.01351 0 9C0 13.9865 4.01351 18 8.99999 18H18V9.12163C18 4.13514 13.9865 0 8.99999 0ZM4.79779 13.5913C4.58261 13.3761 4.58972 13.0201 4.81368 12.7961L12.7961 4.81367C13.0201 4.58971 13.3761 4.5826 13.5913 4.79778C13.8065 5.01297 13.7994 5.36897 13.5754 5.59293L5.59294 13.5754C5.36898 13.7993 5.01298 13.8065 4.79779 13.5913ZM6.2449 9.18367C7.46218 9.18367 8.44898 8.19687 8.44898 6.97959C8.44898 5.76231 7.46218 4.77551 6.2449 4.77551C5.02762 4.77551 4.04082 5.76231 4.04082 6.97959C4.04082 8.19687 5.02762 9.18367 6.2449 9.18367ZM11.7551 13.9592C12.9724 13.9592 13.9592 12.9724 13.9592 11.7551C13.9592 10.5378 12.9724 9.55102 11.7551 9.55102C10.5378 9.55102 9.55102 10.5378 9.55102 11.7551C9.55102 12.9724 10.5378 13.9592 11.7551 13.9592Z"
        fill="#2EC99E"></path>
    <path
        d="M12.8571 11.7551C12.8571 12.3637 12.3637 12.8571 11.7551 12.8571C11.1465 12.8571 10.6531 12.3637 10.6531 11.7551C10.6531 11.1465 11.1465 10.6531 11.7551 10.6531C12.3637 10.6531 12.8571 11.1465 12.8571 11.7551Z"
        fill="#2EC99E"></path>
    <path
        d="M7.34694 6.97959C7.34694 7.58823 6.85354 8.08163 6.2449 8.08163C5.63626 8.08163 5.14286 7.58823 5.14286 6.97959C5.14286 6.37095 5.63626 5.87755 6.2449 5.87755C6.85354 5.87755 7.34694 6.37095 7.34694 6.97959Z"
        fill="#2EC99E"></path>
    <path fill-rule="evenodd" clip-rule="evenodd"
        d="M13.9592 11.7551C13.9592 12.9724 12.9724 13.9592 11.7551 13.9592C10.5378 13.9592 9.55102 12.9724 9.55102 11.7551C9.55102 10.5378 10.5378 9.55102 11.7551 9.55102C12.9724 9.55102 13.9592 10.5378 13.9592 11.7551ZM11.7551 12.8571C12.3637 12.8571 12.8571 12.3637 12.8571 11.7551C12.8571 11.1465 12.3637 10.6531 11.7551 10.6531C11.1465 10.6531 10.6531 11.1465 10.6531 11.7551C10.6531 12.3637 11.1465 12.8571 11.7551 12.8571Z"
        fill="#141414"></path>
    <path
        d="M4.81368 12.7961C4.58972 13.0201 4.58261 13.3761 4.79779 13.5913C5.01298 13.8065 5.36898 13.7993 5.59294 13.5754L13.5754 5.59293C13.7994 5.36897 13.8065 5.01297 13.5913 4.79778C13.3761 4.5826 13.0201 4.58971 12.7961 4.81367L4.81368 12.7961Z"
        fill="#141414"></path>
    <path fill-rule="evenodd" clip-rule="evenodd"
        d="M8.44898 6.97959C8.44898 8.19687 7.46218 9.18367 6.2449 9.18367C5.02762 9.18367 4.04082 8.19687 4.04082 6.97959C4.04082 5.76231 5.02762 4.77551 6.2449 4.77551C7.46218 4.77551 8.44898 5.76231 8.44898 6.97959ZM6.2449 8.08163C6.85354 8.08163 7.34694 7.58823 7.34694 6.97959C7.34694 6.37095 6.85354 5.87755 6.2449 5.87755C5.63626 5.87755 5.14286 6.37095 5.14286 6.97959C5.14286 7.58823 5.63626 8.08163 6.2449 8.08163Z"
        fill="#141414"></path>
</svg>