<svg width="20" height="20" viewBox="0 0 20 20" fill="none" xmlns="http://www.w3.org/2000/svg">
<g id="Discount 1">
<path id="Vector" d="M2.05394 7.7863C1.84682 7.7863 1.65782 7.61841 1.66734 7.39896C1.7231 6.1139 1.87934 5.27732 2.31706 4.61554C2.5689 4.2348 2.8817 3.90366 3.24135 3.63707C4.21345 2.9165 5.58482 2.9165 8.32754 2.9165H11.6732C14.4158 2.9165 15.7872 2.9165 16.7593 3.63707C17.119 3.90366 17.4317 4.2348 17.6836 4.61554C18.1213 5.27725 18.2776 6.11371 18.3333 7.39853C18.3428 7.61824 18.1536 7.7863 17.9462 7.7863C16.7914 7.7863 15.8552 8.77734 15.8552 9.99984C15.8552 11.2223 16.7914 12.2133 17.9462 12.2133C18.1536 12.2133 18.3428 12.3814 18.3333 12.6012C18.2776 13.886 18.1213 14.7224 17.6836 15.3842C17.4317 15.7648 17.119 16.096 16.7593 16.3626C15.7872 17.0832 14.4158 17.0832 11.6732 17.0832H8.32754C5.58482 17.0832 4.21345 17.0832 3.24135 16.3626C2.8817 16.096 2.5689 15.7648 2.31706 15.3842C1.87934 14.7223 1.7231 13.8858 1.66734 12.6008C1.65782 12.3813 1.84682 12.2133 2.05394 12.2133C3.20876 12.2133 4.14493 11.2223 4.14493 9.99984C4.14493 8.77734 3.20876 7.7863 2.05394 7.7863Z" stroke-width="1.5" stroke-linejoin="round" stroke="currentColor"/>
<path id="Vector_2" d="M7.91699 12.0832L12.0837 7.9165" stroke-width="1.5" stroke-linecap="round" stroke-linejoin="round" stroke="currentColor"/>
<path id="Vector_3" d="M7.91699 7.9165H7.92634M12.0743 12.0832H12.0837" stroke-width="1.5" stroke-linecap="round" stroke-linejoin="round" stroke="currentColor"/>
</g>
</svg>
