<svg xmlns="http://www.w3.org/2000/svg" width="24" height="24" viewBox="0 0 24 24" fill="none">
  <path d="M5.61095 2.4381C7.50204 1.17451 9.72534 0.500054 11.9997 0.5C15.0487 0.503517 17.9718 1.71628 20.1278 3.87224C22.2838 6.02826 23.4966 8.95148 23.5 12.0006C23.4999 14.2749 22.8254 16.498 21.5619 18.3891C20.2983 20.2802 18.5022 21.7542 16.4009 22.6246C14.2995 23.495 11.9872 23.7228 9.75646 23.279C7.52568 22.8353 5.47658 21.74 3.86828 20.1317C2.25997 18.5234 1.1647 16.4743 0.720975 14.2435C0.277245 12.0128 0.504983 9.70049 1.37539 7.59914C2.2458 5.49779 3.71978 3.70173 5.61095 2.4381Z" fill="#FFBC5A" stroke="black"/>
  <path d="M14 6.4H12.6667V5.7C12.6667 5.51435 12.5964 5.3363 12.4714 5.20503C12.3464 5.07375 12.1768 5 12 5C11.8232 5 11.6536 5.07375 11.5286 5.20503C11.4036 5.3363 11.3333 5.51435 11.3333 5.7V6.4H10C9.46973 6.40056 8.96133 6.62198 8.58637 7.01569C8.21141 7.4094 8.00053 7.94322 8 8.5V10.6C8.00053 11.1568 8.21141 11.6906 8.58637 12.0843C8.96133 12.478 9.46973 12.6994 10 12.7H14C14.1768 12.7002 14.3462 12.774 14.4712 12.9052C14.5962 13.0365 14.6665 13.2144 14.6667 13.4V15.5C14.6665 15.6856 14.5962 15.8635 14.4712 15.9948C14.3462 16.126 14.1768 16.1998 14 16.2H10C9.82324 16.1998 9.65378 16.126 9.52879 15.9948C9.4038 15.8635 9.33351 15.6856 9.33333 15.5V14.8C9.33333 14.6143 9.2631 14.4363 9.13807 14.305C9.01305 14.1737 8.84348 14.1 8.66667 14.1C8.48986 14.1 8.32029 14.1737 8.19526 14.305C8.07024 14.4363 8 14.6143 8 14.8V15.5C8.00053 16.0568 8.21141 16.5906 8.58637 16.9843C8.96133 17.378 9.46973 17.5994 10 17.6H11.3333V18.3C11.3333 18.4857 11.4036 18.6637 11.5286 18.795C11.6536 18.9263 11.8232 19 12 19C12.1768 19 12.3464 18.9263 12.4714 18.795C12.5964 18.6637 12.6667 18.4857 12.6667 18.3V17.6H14C14.5303 17.5994 15.0387 17.378 15.4136 16.9843C15.7886 16.5906 15.9995 16.0568 16 15.5V13.4C15.9995 12.8432 15.7886 12.3094 15.4136 11.9157C15.0387 11.522 14.5303 11.3006 14 11.3H10C9.82324 11.2998 9.65378 11.226 9.52879 11.0948C9.4038 10.9635 9.33351 10.7856 9.33333 10.6V8.5C9.33351 8.31441 9.4038 8.13647 9.52879 8.00523C9.65378 7.874 9.82324 7.80019 10 7.8H14C14.1768 7.80019 14.3462 7.874 14.4712 8.00523C14.5962 8.13647 14.6665 8.31441 14.6667 8.5V9.2C14.6667 9.38565 14.7369 9.5637 14.8619 9.69498C14.987 9.82625 15.1565 9.9 15.3333 9.9C15.5101 9.9 15.6797 9.82625 15.8047 9.69498C15.9298 9.5637 16 9.38565 16 9.2V8.5C15.9995 7.94322 15.7886 7.4094 15.4136 7.01569C15.0387 6.62198 14.5303 6.40056 14 6.4Z" fill="#231F20"/>
</svg>