<svg xmlns:xlink="http://www.w3.org/1999/xlink" width="14" height="14" viewBox="0 0 14 14" fill="none"
    xmlns="http://www.w3.org/2000/svg">
    <path
        d="M4.89583 6.63542H9.39583C9.67198 6.63542 9.89583 6.86394 9.89583 7.14583V9.95312C9.89583 10.235 9.67198 10.4635 9.39583 10.4635H4.89583C4.61969 10.4635 4.39583 10.235 4.39583 9.95312V7.14583C4.39583 6.86394 4.61969 6.63542 4.89583 6.63542Z"
        fill="#AAAAA1"></path>
    <path
        d="M7.14583 3.82812C7.83619 3.82812 8.39583 4.39943 8.39583 5.10417V5.86979H5.89583V5.10417C5.89583 4.39943 6.45548 3.82812 7.14583 3.82812Z"
        fill="#AAAAA1"></path>
    <path fill-rule="evenodd" clip-rule="evenodd"
        d="M0 7C0 3.12162 3.12162 0 6.99999 0C10.8784 0 14 3.21622 14 7.0946V14H6.99999C3.12162 14 0 10.8784 0 7ZM4.89583 5.86979C4.20548 5.86979 3.64583 6.44109 3.64583 7.14583V9.95312C3.64583 10.6579 4.20548 11.2292 4.89583 11.2292H9.39583C10.0862 11.2292 10.6458 10.6579 10.6458 9.95312V7.14583C10.6458 6.44109 10.0862 5.86979 9.39583 5.86979H9.14583V5.10417C9.14583 3.97659 8.2504 3.0625 7.14583 3.0625C6.04126 3.0625 5.14583 3.97659 5.14583 5.10417V5.86979H4.89583Z"
        fill="#AAAAA1"></path>
</svg>