<svg xmlns:xlink="http://www.w3.org/1999/xlink" width="14" height="14" viewBox="0 0 14 14" fill="none"
    xmlns="http://www.w3.org/2000/svg">
    <path fill-rule="evenodd" clip-rule="evenodd"
        d="M6.99999 0C3.12162 0 0 3.12162 0 7C0 10.8784 3.12162 14 6.99999 14H14V7.0946C14 3.21622 10.8784 0 6.99999 0ZM4.75 5.91992C4.05964 5.91992 3.5 6.50143 3.5 7.21875V10.0762C3.5 10.7935 4.05964 11.375 4.75 11.375H9.25C9.94036 11.375 10.5 10.7935 10.5 10.0762V7.21875C10.5 6.50143 9.94036 5.91992 9.25 5.91992H5.75V5.14062C5.75 4.4233 6.30964 3.8418 7 3.8418C7.62513 3.8418 8.14308 4.31861 8.23537 4.94132C8.25157 5.05058 8.33954 5.14062 8.45 5.14062H8.8C8.91046 5.14062 9.00097 5.05082 8.99088 4.94083C8.89411 3.88684 8.03971 3.0625 7 3.0625C5.89543 3.0625 5 3.99291 5 5.14062V5.91992H4.75ZM4.25 7.21875C4.25 6.93182 4.47386 6.69922 4.75 6.69922H9.25C9.52614 6.69922 9.75 6.93182 9.75 7.21875V10.0762C9.75 10.3631 9.52614 10.5957 9.25 10.5957H4.75C4.47386 10.5957 4.25 10.3631 4.25 10.0762V7.21875Z"
        fill="#2EC99E"></path>
    <path fill-rule="evenodd" clip-rule="evenodd"
        d="M3.5 7.21875C3.5 6.50143 4.05964 5.91992 4.75 5.91992H5V5.14062C5 3.99291 5.89543 3.0625 7 3.0625C8.03971 3.0625 8.89411 3.88684 8.99088 4.94083C9.00097 5.05082 8.91046 5.14062 8.8 5.14062H8.45C8.33954 5.14062 8.25157 5.05058 8.23537 4.94132C8.14308 4.31861 7.62513 3.8418 7 3.8418C6.30964 3.8418 5.75 4.4233 5.75 5.14062V5.91992H9.25C9.94036 5.91992 10.5 6.50143 10.5 7.21875V10.0762C10.5 10.7935 9.94036 11.375 9.25 11.375H4.75C4.05964 11.375 3.5 10.7935 3.5 10.0762V7.21875ZM9.25 6.69922H4.75C4.47386 6.69922 4.25 6.93182 4.25 7.21875V10.0762C4.25 10.3631 4.47386 10.5957 4.75 10.5957H9.25C9.52614 10.5957 9.75 10.3631 9.75 10.0762V7.21875C9.75 6.93182 9.52614 6.69922 9.25 6.69922Z"
        fill="#141414"></path>
</svg>