<svg width="18" height="18" viewBox="0 0 18 18" fill="none" xmlns="http://www.w3.org/2000/svg">
<path d="M6.29464 8.53125H12.0804C12.4354 8.53125 12.7232 8.82506 12.7232 9.1875V12.7969C12.7232 13.1593 12.4354 13.4531 12.0804 13.4531H6.29464C5.9396 13.4531 5.65179 13.1593 5.65179 12.7969V9.1875C5.65179 8.82506 5.9396 8.53125 6.29464 8.53125Z" fill="#737368"/>
<path d="M9.1875 4.92188C10.0751 4.92188 10.7946 5.65641 10.7946 6.5625V7.54688H7.58036V6.5625C7.58036 5.65641 8.2999 4.92188 9.1875 4.92188Z" fill="#737368"/>
<path fill-rule="evenodd" clip-rule="evenodd" d="M0 9C0 4.01351 4.01351 0 8.99999 0C13.9865 0 18 4.13514 18 9.12163V18H8.99999C4.01351 18 0 13.9865 0 9ZM6.29464 7.54688C5.40704 7.54688 4.6875 8.28141 4.6875 9.1875V12.7969C4.6875 13.703 5.40704 14.4375 6.29464 14.4375H12.0804C12.968 14.4375 13.6875 13.703 13.6875 12.7969V9.1875C13.6875 8.28141 12.968 7.54688 12.0804 7.54688H11.7589V6.5625C11.7589 5.11275 10.6077 3.9375 9.1875 3.9375C7.76734 3.9375 6.61607 5.11275 6.61607 6.5625V7.54688H6.29464Z" fill="#737368"/>
</svg>
