<svg width="18" height="18" viewBox="0 0 18 18" fill="none" xmlns="http://www.w3.org/2000/svg">
    <path d="M13.1667 14.8333C13.1667 15.7538 13.9128 16.5 14.8333 16.5C15.7538 16.5 16.5 15.7538 16.5 14.8333C16.5 13.9128 15.7538 13.1667 14.8333 13.1667M13.1667 14.8333C13.1667 13.9128 13.9128 13.1667 14.8333 13.1667M13.1667 14.8333H4.83333M14.8333 13.1667V4.83333M4.83333 14.8333C4.83333 15.7538 4.08714 16.5 3.16667 16.5C2.24619 16.5 1.5 15.7538 1.5 14.8333C1.5 13.9128 2.24619 13.1667 3.16667 13.1667M4.83333 14.8333C4.83333 13.9128 4.08714 13.1667 3.16667 13.1667M14.8333 4.83333C13.9128 4.83333 13.1667 4.08714 13.1667 3.16667M14.8333 4.83333C15.7538 4.83333 16.5 4.08714 16.5 3.16667C16.5 2.24619 15.7538 1.5 14.8333 1.5C13.9128 1.5 13.1667 2.24619 13.1667 3.16667M3.16667 13.1667V4.83333M3.16667 4.83333C2.24619 4.83333 1.5 4.08714 1.5 3.16667C1.5 2.24619 2.24619 1.5 3.16667 1.5C4.08714 1.5 4.83333 2.24619 4.83333 3.16667M3.16667 4.83333C4.08714 4.83333 4.83333 4.08714 4.83333 3.16667M4.83333 3.16667H13.1667M7.33333 11.5V6.5L10.6667 11.5V6.5" stroke="white" stroke-width="1.5" stroke-linecap="round" stroke-linejoin="round"/>
</svg>
