<svg xmlns="http://www.w3.org/2000/svg" width="20" height="20" viewBox="0 0 20 20" fill="none">
  <path d="M10.0939 18.3174C10.0308 18.3389 9.96908 18.3387 9.90617 18.3166C9.09792 18.0326 3.33325 15.7828 3.33325 9.37702V3.58656C3.33325 3.43336 3.43735 3.29981 3.58574 3.26265L9.91909 1.67666C9.97217 1.66336 10.0277 1.66336 10.0808 1.67666L16.4141 3.26265C16.5625 3.29981 16.6666 3.43336 16.6666 3.58656V9.37702C16.6666 15.8474 10.9033 18.0413 10.0939 18.3174Z" stroke="black" stroke-width="1.5" stroke-miterlimit="10" stroke-linejoin="round"/>
  <path d="M11.6666 8.25699C11.6668 8.58617 11.56 8.9073 11.361 9.17613C11.162 9.44495 10.8806 9.64824 10.5555 9.75796L10.9833 11.8689C10.9988 11.9456 10.9964 12.0248 10.9762 12.1005C10.956 12.1763 10.9184 12.2469 10.8663 12.3072C10.8142 12.3675 10.7487 12.4161 10.6746 12.4494C10.6005 12.4828 10.5196 12.5 10.4377 12.5H9.56214C9.48032 12.4999 9.39954 12.4825 9.32558 12.4491C9.25162 12.4157 9.1863 12.3671 9.13428 12.3068C9.08227 12.2465 9.04485 12.176 9.02469 12.1003C9.00454 12.0246 9.00215 11.9456 9.0177 11.8689L9.44436 9.75796C9.15632 9.66074 8.90181 9.4898 8.70865 9.26382C8.51548 9.03785 8.3911 8.76553 8.34909 8.47663C8.30707 8.18773 8.34905 7.89336 8.47042 7.6257C8.5918 7.35803 8.78791 7.12737 9.03731 6.95891C9.28672 6.79045 9.57983 6.69068 9.88461 6.6705C10.1894 6.65032 10.4941 6.71051 10.7655 6.84449C11.0369 6.97847 11.2645 7.18108 11.4234 7.43019C11.5823 7.6793 11.6664 7.96532 11.6666 8.25699Z" fill="black"/>
</svg>