<svg width="59" height="20" viewBox="0 0 59 20" fill="none" xmlns="http://www.w3.org/2000/svg">
  <path fill-rule="evenodd" clip-rule="evenodd" d="M58.3333 10.3335C58.3333 6.91551 56.6773 4.21851 53.5122 4.21851C50.3337 4.21851 48.4106 6.91551 48.4106 10.3068C48.4106 14.3256 50.6809 16.355 53.9395 16.355C55.5288 16.355 56.7307 15.9945 57.6389 15.4872V12.8169C56.7307 13.2708 55.689 13.5512 54.3669 13.5512C53.0715 13.5512 51.9229 13.0973 51.776 11.5218H58.3066C58.3066 11.3482 58.3333 10.6539 58.3333 10.3335ZM51.736 9.06511C51.736 7.55639 52.6575 6.92886 53.4988 6.92886C54.3135 6.92886 55.1816 7.55639 55.1816 9.06511H51.736Z" fill="#635BFF"/>
  <path fill-rule="evenodd" clip-rule="evenodd" d="M41 4.21851C39.6912 4.21851 38.8498 4.83268 38.3824 5.25992L38.2088 4.43213H35.2707V20L38.6094 19.2924L38.6228 15.5139C39.1036 15.861 39.8114 16.355 40.9866 16.355C43.3772 16.355 45.554 14.4324 45.554 10.2C45.5407 6.32805 43.3371 4.21851 41 4.21851ZM40.1987 13.4177C39.4107 13.4177 38.9433 13.1373 38.6228 12.7902L38.6094 7.83677C38.9567 7.44957 39.4374 7.18254 40.1987 7.18254C41.414 7.18254 42.2553 8.5444 42.2553 10.2934C42.2553 12.0826 41.4273 13.4177 40.1987 13.4177Z" fill="#635BFF"/>
  <path fill-rule="evenodd" clip-rule="evenodd" d="M29.058 3.43134L32.4101 2.71036V0L29.058 0.70763V3.43134Z" fill="#635BFF"/>
  <path d="M32.4101 4.44592H29.058V16.1285H32.4101V4.44592Z" fill="#635BFF"/>
  <path fill-rule="evenodd" clip-rule="evenodd" d="M23.4206 5.43419L23.2069 4.44618H20.3223V16.1288H23.661V8.2113C24.449 7.18324 25.7845 7.37016 26.1985 7.51702V4.44618C25.7711 4.28596 24.2086 3.99222 23.4206 5.43419Z" fill="#635BFF"/>
  <path fill-rule="evenodd" clip-rule="evenodd" d="M14.9422 1.54895L11.6836 2.24323L11.6702 12.9378C11.6702 14.9138 13.1526 16.3691 15.1292 16.3691C16.2243 16.3691 17.0256 16.1689 17.4663 15.9285V13.2182C17.0389 13.3917 14.9288 14.0059 14.9288 12.0299V7.2901H17.4663V4.44623H14.9288L14.9422 1.54895Z" fill="#635BFF"/>
  <path fill-rule="evenodd" clip-rule="evenodd" d="M3.71212 7.83689C3.71212 7.31618 4.13948 7.11591 4.8473 7.11591C5.86228 7.11591 7.14435 7.42299 8.15933 7.97041V4.8328C7.05087 4.3922 5.95576 4.21863 4.8473 4.21863C2.13624 4.21863 0.333313 5.63389 0.333313 7.99711C0.333313 11.6821 5.40821 11.0947 5.40821 12.6835C5.40821 13.2977 4.87401 13.4979 4.12613 13.4979C3.01766 13.4979 1.60204 13.044 0.480218 12.4298V15.6075C1.72223 16.1415 2.9776 16.3685 4.12613 16.3685C6.90396 16.3685 8.81373 14.9933 8.81373 12.6034C8.80037 8.62463 3.71212 9.33226 3.71212 7.83689Z" fill="#635BFF"/>
</svg>