<svg width="24" height="24" viewBox="0 0 24 24" fill="none" xmlns="http://www.w3.org/2000/svg">
<g id="Vector">
<path id="Vector_2" d="M2.66876 0.437628C2.0719 -0.159228 1.0886 -0.14362 0.47249 0.47249C-0.14362 1.0886 -0.159228 2.0719 0.437628 2.66876L9.55273 11.7839C9.6721 11.9032 9.6721 12.0968 9.55273 12.2161L0.437628 21.3312C-0.159228 21.9281 -0.14362 22.9114 0.47249 23.5275C1.0886 24.1436 2.0719 24.1592 2.66876 23.5624L11.7839 14.4473C11.9032 14.3279 12.0968 14.3279 12.2161 14.4473L21.3312 23.5624C21.9281 24.1592 22.9114 24.1436 23.5275 23.5275C24.1436 22.9114 24.1592 21.9281 23.5624 21.3312L14.4473 12.2161C14.3279 12.0968 14.3279 11.9032 14.4473 11.7839L23.5624 2.66876C24.1592 2.0719 24.1436 1.0886 23.5275 0.47249C22.9114 -0.14362 21.9281 -0.159227 21.3312 0.437628L12.2161 9.55273C12.0968 9.6721 11.9032 9.6721 11.7839 9.55273L2.66876 0.437628Z" fill="#C2C2C2"/>
</g>
</svg>
