<svg width="62" height="38" viewBox="0 0 62 38" fill="none" xmlns="http://www.w3.org/2000/svg">
<g id="Frame" clip-path="url(#clip0_9029_18184)">
<g id="[component:lottie:https://assets10.lottiefiles.com/packages/lf20_borkvxlu.json]">
<g id="Group">
<g id="Group_2">
<path id="Vector" d="M30.8918 0.226562C17.9017 0.226562 7.37109 10.8115 7.37109 23.8686V36.5436H54.4125V23.8686C54.4125 10.8115 43.8817 0.226562 30.8918 0.226562Z" fill="#2BCFA1"/>
</g>
</g>
<g id="Group_3">
<g id="Group_4">
<path id="Vector_2" d="M5.99823 31.4883C2.7145 31.4883 0.0527344 34.1639 0.0527344 37.4645V37.57C0.0527344 37.7657 0.210457 37.9243 0.405227 37.9243H2.79676V37.0048C2.79676 36.751 3.00151 36.5452 3.25405 36.5452C3.50674 36.5452 3.71149 36.751 3.71149 37.0048V37.9243H5.54079V37.0048C5.54079 36.751 5.74554 36.5452 5.99823 36.5452C6.25077 36.5452 6.45552 36.751 6.45552 37.0048V37.9243H8.28497V37.0048C8.28497 36.751 8.48972 36.5452 8.74226 36.5452C8.9948 36.5452 9.19955 36.751 9.19955 37.0048V37.9243H11.5912C11.7859 37.9243 11.9437 37.7657 11.9437 37.57V37.4645C11.9437 34.1639 9.28181 31.4883 5.99823 31.4883Z" fill="#2BCFA1"/>
</g>
<g id="Group_5">
<path id="Vector_3" d="M55.8498 31.4883C52.5662 31.4883 49.9043 34.1639 49.9043 37.4645V37.57C49.9043 37.7657 50.0622 37.9243 50.2568 37.9243H52.6485V37.0048C52.6485 36.751 52.8532 36.5452 53.1058 36.5452C53.3582 36.5452 53.5631 36.751 53.5631 37.0048V37.9243H55.3925V37.0048C55.3925 36.751 55.5973 36.5452 55.8498 36.5452C56.1025 36.5452 56.3071 36.751 56.3071 37.0048V37.9243H58.1365V37.0048C58.1365 36.751 58.3413 36.5452 58.5938 36.5452C58.8465 36.5452 59.0513 36.751 59.0513 37.0048V37.9243H61.4429C61.6374 37.9243 61.7953 37.7657 61.7953 37.57V37.4645C61.7953 34.1639 59.1334 31.4883 55.8498 31.4883Z" fill="#2BCFA1"/>
</g>
</g>
<g id="Group_6">
<g id="Group_7">
<path id="Vector_4" d="M22.006 19.5352C25.2896 19.5352 27.9515 22.211 27.9515 25.5113C27.9515 28.812 25.2896 31.4878 22.006 31.4878C18.7225 31.4878 16.0605 28.812 16.0605 25.5113C16.0605 22.211 18.7225 19.5352 22.006 19.5352Z" fill="white"/>
</g>
<g id="Group_8">
<path id="Vector_5" d="M39.3849 19.5352C42.6685 19.5352 45.3304 22.211 45.3304 25.5113C45.3304 28.812 42.6685 31.4878 39.3849 31.4878C36.1012 31.4878 33.4395 28.812 33.4395 25.5113C33.4395 22.211 36.1012 19.5352 39.3849 19.5352Z" fill="white"/>
</g>
</g>
<g id="Group_9">
<g id="Group_10">
<path id="Vector_6" d="M19.4951 27.4258C20.2528 27.4258 20.8671 28.0432 20.8671 28.8049C20.8671 29.5667 20.2528 30.184 19.4951 30.184C18.7373 30.184 18.123 29.5667 18.123 28.8049C18.123 28.0432 18.7373 27.4258 19.4951 27.4258Z" fill="black"/>
</g>
<g id="Group_11">
<path id="Vector_7" d="M36.874 27.4258C37.6319 27.4258 38.246 28.0432 38.246 28.8049C38.246 29.5667 37.6319 30.184 36.874 30.184C36.1162 30.184 35.502 29.5667 35.502 28.8049C35.502 28.0432 36.1162 27.4258 36.874 27.4258Z" fill="black"/>
</g>
</g>
</g>
</g>
<defs>
<clipPath id="clip0_9029_18184">
<rect width="62" height="38" fill="white"/>
</clipPath>
</defs>
</svg>
